<?xml version="1.0" encoding="UTF-8" standalone="no"?><!DOCTYPE svg PUBLIC "-//W3C//DTD SVG 1.1//EN" "http://www.w3.org/Graphics/SVG/1.1/DTD/svg11.dtd"><svg width="100%" height="100%" viewBox="0 0 1000 1000" version="1.1" xmlns="http://www.w3.org/2000/svg" xmlns:xlink="http://www.w3.org/1999/xlink" xml:space="preserve" xmlns:serif="http://www.serif.com/" style="fill-rule:evenodd;clip-rule:evenodd;stroke-linejoin:round;stroke-miterlimit:1.41421;"><g><g><path d="M79.41,135.92c-32.32,8.61 -57.57,34.43 -66.18,67.13c-4.4,16.64 -4.21,455.21 0,472.05c4.4,16.64 13.39,31.94 25.63,43.61c19.89,18.94 40.17,26.2 73.26,26.2l20.66,0l0,20.66c0,33.09 7.27,53.36 26.2,73.25c5.55,5.93 15.3,13.58 21.42,16.83c23.53,12.43 -1.53,11.67 380.81,11.67c305.64,0 348.68,-0.38 358.62,-2.87c32.9,-8.61 58.34,-34.24 66.94,-67.33c4.4,-16.64 4.21,-455.21 0,-472.05c-4.4,-16.64 -13.39,-31.94 -25.63,-43.61c-19.89,-18.94 -40.17,-26.2 -73.25,-26.2l-20.66,0l0,-20.66c0,-12.43 -1.15,-25.06 -2.87,-31.94c-8.61,-32.9 -34.24,-58.34 -67.33,-66.94c-16.25,-4.2 -701.75,-4.01 -717.62,0.2Zm712.46,63.12c11.48,8.42 13.2,12.81 13.77,35.38l0.77,20.85l-296.27,0c-322.86,0 -305.83,-0.57 -328.02,10.71c-13.58,6.89 -30.41,23.53 -37.68,36.91c-12.05,22.76 -11.67,16.26 -11.67,207.33l0,173.86l-20.85,-0.77c-22.57,-0.57 -26.97,-2.3 -35.38,-13.77c-4.02,-5.17 -4.02,-6.5 -4.59,-225.5c-0.19,-121.26 0,-223.02 0.57,-226.46c1.34,-7.65 9.37,-17.4 17.21,-20.85c4.78,-2.1 66.94,-2.49 351.36,-2.1l345.62,0.38l5.16,4.03Zm122.41,122.41c2.87,2.1 7.08,6.31 9.18,9.18c4.02,5.16 4.02,5.93 4.02,230.67c0,224.74 0,225.5 -4.02,230.67c-2.1,2.87 -6.31,7.08 -9.18,9.18l-5.16,4.02l-347.91,0l-347.92,0l-5.16,-4.02c-2.87,-2.11 -7.08,-6.31 -9.18,-9.18c-4.02,-5.16 -4.02,-6.5 -4.59,-225.5c-0.19,-121.26 0,-223.02 0.57,-226.46c1.34,-7.65 9.37,-17.4 17.21,-20.85c4.78,-2.1 66.94,-2.49 351.36,-2.1l345.62,0.38l5.16,4.01Z" style="fill:#d4d8e8;fill-rule:nonzero;"/><path d="M442.43,395.47c-27.73,10.33 -41.31,36.15 -33.47,62.93c11.28,38.64 60.63,49.54 87.22,19.13c7.65,-8.61 13.39,-22.76 13.39,-32.9c0,-8.61 -5.36,-23.53 -11.28,-31.75c-11.49,-15.5 -38.26,-23.91 -55.86,-17.41Z" style="fill:#d4d8e8;fill-rule:nonzero;"/><path d="M612.08,469.87c-2.68,2.49 -28.11,44.76 -56.61,94.29c-28.31,49.54 -52.21,90.08 -53.17,90.28c-0.77,0.38 -11.28,-16.83 -23.33,-38.06c-24.48,-42.65 -29.65,-49.35 -39.02,-49.35c-11.86,0 -11.09,-0.96 -65.99,94.48c-25.06,43.8 -27.54,50.11 -23.14,58.72c5.35,9.76 -1.53,9.37 209.44,9.37c210.01,0 206.18,0.19 211.16,-9.18c4.59,-8.61 2.29,-14.92 -21.42,-56.04c-80.35,-139.81 -108.08,-186.86 -112.86,-192.4c-6.89,-7.85 -17.6,-8.8 -25.06,-2.11Z" style="fill:#d4d8e8;fill-rule:nonzero;"/></g></g></svg>