<?xml version="1.0" encoding="UTF-8" standalone="no"?><!DOCTYPE svg PUBLIC "-//W3C//DTD SVG 1.1//EN" "http://www.w3.org/Graphics/SVG/1.1/DTD/svg11.dtd"><svg width="100%" height="100%" viewBox="0 0 204 20" version="1.1" xmlns="http://www.w3.org/2000/svg" xmlns:xlink="http://www.w3.org/1999/xlink" xml:space="preserve" xmlns:serif="http://www.serif.com/" style="fill-rule:evenodd;clip-rule:evenodd;stroke-linejoin:round;stroke-miterlimit:1.41421;"><rect id="designed-by-parabolic" x="0" y="0" width="204" height="19.2" style="fill:none;"/><clipPath id="_clip1"><rect x="0" y="0" width="204" height="19.2"/></clipPath><g clip-path="url(#_clip1)"><g><path d="M111.122,1.857l3.513,0.002l-7.012,7.013l3.515,3.515l0.003,3.514l-2.792,2.791l-3.513,-0.002l-4.219,-4.219l-0.002,-3.513l5.261,5.261l1.43,0l1.35,-1.349l-0.001,-1.455l-2.788,-2.788l-0.002,-3.513l5.257,-5.257Zm-18.244,15.486l-3.513,-0.002l7.012,-7.013l-3.515,-3.515l-0.002,-3.514l2.791,-2.791l3.514,0.002l4.218,4.219l0.002,3.513l-5.261,-5.261l-1.43,0l-1.35,1.349l0.001,1.455l2.788,2.788l0.002,3.513l-5.257,5.257Z" style="fill:#fff;"/></g><path d="M0,13.677l0,-8.177l3.295,0c0.759,0 1.426,0.108 2.002,0.323c0.576,0.215 1.056,0.506 1.44,0.875c0.384,0.368 0.672,0.8 0.864,1.295c0.192,0.496 0.288,1.024 0.288,1.584c0,0.622 -0.108,1.184 -0.322,1.687c-0.214,0.503 -0.522,0.933 -0.924,1.29c-0.402,0.357 -0.886,0.633 -1.453,0.829c-0.567,0.196 -1.199,0.294 -1.895,0.294l-3.295,0Zm6.67,-4.1c0,-0.461 -0.074,-0.885 -0.221,-1.273c-0.147,-0.387 -0.366,-0.719 -0.656,-0.996c-0.291,-0.276 -0.646,-0.493 -1.065,-0.65c-0.42,-0.158 -0.898,-0.236 -1.433,-0.236l-2.09,0l0,6.333l2.09,0c0.544,0 1.029,-0.08 1.453,-0.241c0.424,-0.162 0.777,-0.384 1.058,-0.668c0.281,-0.284 0.496,-0.62 0.643,-1.008c0.147,-0.388 0.221,-0.808 0.221,-1.261Z" style="fill:#fff;fill-rule:nonzero;"/><path d="M16.045,12.755l0,0.922l-6.455,0l0,-8.177l6.335,0l0,0.922l-5.13,0l0,2.648l4.46,0l0,0.864l-4.46,0l0,2.821l5.25,0Z" style="fill:#fff;fill-rule:nonzero;"/><path d="M23.277,7.216c-0.107,-0.107 -0.25,-0.211 -0.428,-0.311c-0.179,-0.1 -0.38,-0.19 -0.603,-0.27c-0.223,-0.081 -0.466,-0.146 -0.73,-0.196c-0.263,-0.05 -0.538,-0.075 -0.823,-0.075c-0.742,0 -1.284,0.119 -1.628,0.357c-0.343,0.238 -0.515,0.564 -0.515,0.979c0,0.222 0.049,0.407 0.147,0.553c0.098,0.145 0.252,0.27 0.462,0.374c0.21,0.104 0.471,0.194 0.784,0.271c0.312,0.076 0.683,0.157 1.111,0.241c0.491,0.092 0.935,0.198 1.333,0.317c0.397,0.119 0.736,0.267 1.018,0.443c0.281,0.177 0.495,0.392 0.643,0.645c0.147,0.254 0.221,0.565 0.221,0.933c0,0.392 -0.09,0.731 -0.268,1.019c-0.179,0.288 -0.422,0.526 -0.73,0.714c-0.308,0.188 -0.672,0.327 -1.092,0.415c-0.419,0.088 -0.875,0.132 -1.366,0.132c-0.732,0 -1.426,-0.098 -2.083,-0.293c-0.656,-0.196 -1.252,-0.482 -1.788,-0.858l0.576,-0.876c0.143,0.131 0.329,0.262 0.556,0.392c0.228,0.131 0.487,0.248 0.777,0.351c0.29,0.104 0.603,0.188 0.938,0.254c0.334,0.065 0.685,0.098 1.051,0.098c0.678,0 1.205,-0.104 1.58,-0.311c0.375,-0.208 0.563,-0.519 0.563,-0.933c0,-0.231 -0.06,-0.424 -0.181,-0.582c-0.121,-0.157 -0.297,-0.293 -0.529,-0.409c-0.232,-0.115 -0.52,-0.216 -0.864,-0.305c-0.344,-0.088 -0.734,-0.178 -1.172,-0.27c-0.482,-0.1 -0.906,-0.208 -1.272,-0.323c-0.366,-0.115 -0.672,-0.253 -0.918,-0.414c-0.245,-0.162 -0.43,-0.357 -0.555,-0.588c-0.125,-0.23 -0.188,-0.506 -0.188,-0.829c0,-0.391 0.085,-0.737 0.255,-1.036c0.169,-0.3 0.406,-0.553 0.709,-0.76c0.304,-0.208 0.666,-0.363 1.085,-0.467c0.42,-0.104 0.875,-0.155 1.366,-0.155c0.643,0 1.224,0.084 1.741,0.253c0.518,0.169 0.978,0.395 1.38,0.679l-0.563,0.841Z" style="fill:#fff;fill-rule:nonzero;"/><rect x="25.849" y="5.5" width="1.205" height="8.176" style="fill:#fff;fill-rule:nonzero;"/><path d="M36.041,12.571c-0.839,0.776 -1.803,1.163 -2.893,1.163c-0.634,0 -1.221,-0.119 -1.761,-0.357c-0.54,-0.238 -1.007,-0.551 -1.4,-0.938c-0.392,-0.388 -0.703,-0.831 -0.93,-1.33c-0.228,-0.499 -0.342,-1.014 -0.342,-1.544c0,-0.552 0.112,-1.076 0.335,-1.572c0.223,-0.495 0.531,-0.932 0.924,-1.312c0.393,-0.38 0.862,-0.682 1.406,-0.904c0.545,-0.223 1.134,-0.334 1.768,-0.334c0.92,0 1.677,0.165 2.27,0.495c0.594,0.33 1.047,0.76 1.36,1.29l-0.924,0.552c-0.286,-0.476 -0.665,-0.829 -1.139,-1.059c-0.473,-0.23 -1.004,-0.346 -1.593,-0.346c-0.483,0 -0.92,0.091 -1.313,0.271c-0.393,0.181 -0.728,0.419 -1.005,0.714c-0.276,0.296 -0.491,0.637 -0.642,1.025c-0.152,0.388 -0.228,0.789 -0.228,1.203c0,0.438 0.085,0.851 0.254,1.238c0.17,0.388 0.402,0.73 0.697,1.025c0.294,0.296 0.643,0.528 1.045,0.697c0.401,0.169 0.839,0.253 1.312,0.253c1.036,0 1.969,-0.429 2.799,-1.289l0,-1.129l-2.049,0l0,-0.783l3.067,0l0,4.077l-1.018,0l0,-1.106Z" style="fill:#fff;fill-rule:nonzero;"/><path d="M40.099,7.435l0,6.242l-1.205,0l0,-8.177l0.938,0l5.893,6.369l0,-6.357l1.205,0l0,8.165l-1.018,0l-5.813,-6.242Z" style="fill:#fff;fill-rule:nonzero;"/><path d="M55.662,12.755l0,0.922l-6.455,0l0,-8.177l6.335,0l0,0.922l-5.13,0l0,2.648l4.46,0l0,0.864l-4.46,0l0,2.821l5.25,0Z" style="fill:#fff;fill-rule:nonzero;"/><path d="M57.31,13.677l0,-8.177l3.294,0c0.759,0 1.427,0.108 2.003,0.323c0.576,0.215 1.056,0.506 1.44,0.875c0.383,0.368 0.671,0.8 0.863,1.295c0.192,0.496 0.288,1.024 0.288,1.584c0,0.622 -0.107,1.184 -0.321,1.687c-0.214,0.503 -0.522,0.933 -0.924,1.29c-0.402,0.357 -0.886,0.633 -1.453,0.829c-0.567,0.196 -1.199,0.294 -1.896,0.294l-3.294,0Zm6.67,-4.1c0,-0.461 -0.074,-0.885 -0.221,-1.273c-0.148,-0.387 -0.367,-0.719 -0.657,-0.996c-0.29,-0.276 -0.645,-0.493 -1.064,-0.65c-0.42,-0.158 -0.898,-0.236 -1.434,-0.236l-2.089,0l0,6.333l2.089,0c0.545,0 1.03,-0.08 1.454,-0.241c0.424,-0.162 0.776,-0.384 1.058,-0.668c0.281,-0.284 0.495,-0.62 0.643,-1.008c0.147,-0.388 0.221,-0.808 0.221,-1.261Z" style="fill:#fff;fill-rule:nonzero;"/><path d="M77.587,11.569c0,0.315 -0.074,0.603 -0.221,0.864c-0.147,0.261 -0.348,0.484 -0.603,0.668c-0.254,0.184 -0.549,0.326 -0.884,0.426c-0.334,0.1 -0.694,0.15 -1.078,0.15l-4.513,0l0,-8.177l4.728,0c0.33,0 0.629,0.062 0.897,0.185c0.268,0.122 0.496,0.282 0.683,0.477c0.188,0.196 0.333,0.419 0.435,0.668c0.103,0.25 0.154,0.501 0.154,0.755c0,0.407 -0.118,0.783 -0.355,1.128c-0.236,0.346 -0.573,0.603 -1.011,0.772c0.545,0.138 0.976,0.393 1.293,0.766c0.317,0.372 0.475,0.812 0.475,1.318Zm-1.219,-0.184c0,-0.184 -0.038,-0.363 -0.114,-0.535c-0.075,-0.173 -0.178,-0.325 -0.308,-0.455c-0.129,-0.131 -0.283,-0.235 -0.462,-0.311c-0.178,-0.077 -0.375,-0.115 -0.589,-0.115l-3.402,0l0,2.809l3.308,0c0.224,0 0.429,-0.038 0.616,-0.115c0.188,-0.076 0.353,-0.178 0.496,-0.305c0.143,-0.127 0.254,-0.274 0.335,-0.443c0.08,-0.169 0.12,-0.346 0.12,-0.53Zm-4.875,-4.986l0,2.729l3.027,0c0.214,0 0.411,-0.037 0.589,-0.11c0.179,-0.073 0.333,-0.17 0.462,-0.293c0.13,-0.123 0.233,-0.267 0.308,-0.432c0.076,-0.165 0.114,-0.34 0.114,-0.524c0,-0.192 -0.035,-0.372 -0.107,-0.541c-0.071,-0.169 -0.167,-0.315 -0.288,-0.438c-0.12,-0.123 -0.268,-0.219 -0.442,-0.288c-0.174,-0.069 -0.359,-0.103 -0.556,-0.103l-3.107,0Z" style="fill:#fff;fill-rule:nonzero;"/><path d="M79.221,5.5l2.88,4.261l2.906,-4.261l1.313,0l-3.617,5.194l0,2.983l-1.205,0l0,-3.006l-3.603,-5.171l1.326,0Z" style="fill:#fff;fill-rule:nonzero;"/><path d="M120.506,14.202l-0.877,0c-0.182,0 -0.273,-0.067 -0.273,-0.201l0,-8.802c0,-0.134 0.091,-0.201 0.273,-0.201l4.56,0c0.897,0 1.599,0.189 2.105,0.566c0.507,0.376 0.76,0.894 0.76,1.553l0,1.588c0,0.668 -0.253,1.188 -0.76,1.561c-0.506,0.372 -1.208,0.558 -2.105,0.558l-3.215,0c-0.13,0 -0.195,0.043 -0.195,0.129l0,3.048c0,0.134 -0.091,0.201 -0.273,0.201Zm0.468,-4.309l3.02,0c1.092,0 1.638,-0.41 1.638,-1.231l0,-1.502c0,-0.831 -0.546,-1.246 -1.638,-1.246l-3.02,0c-0.13,0 -0.195,0.043 -0.195,0.129l0,3.722c0,0.085 0.065,0.128 0.195,0.128Z" style="fill:#fff;fill-rule:nonzero;"/><path d="M129.763,14.202l-0.974,0c-0.169,0 -0.227,-0.067 -0.175,-0.201l3.644,-8.802c0.052,-0.134 0.176,-0.201 0.37,-0.201l1.404,0c0.195,0 0.318,0.067 0.37,0.201l3.645,8.802c0.052,0.134 -0.007,0.201 -0.176,0.201l-0.994,0c-0.143,0 -0.234,-0.067 -0.273,-0.201l-0.916,-2.089l-4.716,0l-0.916,2.089c-0.052,0.134 -0.15,0.201 -0.293,0.201Zm3.528,-8.13l-2.007,4.952l4.092,0l-2.007,-4.952l-0.078,0Z" style="fill:#fff;fill-rule:nonzero;"/><path d="M141.282,14.202l-0.877,0c-0.182,0 -0.273,-0.067 -0.273,-0.201l0,-8.802c0,-0.134 0.091,-0.201 0.273,-0.201l4.483,0c0.896,0 1.604,0.189 2.124,0.566c0.52,0.376 0.779,0.894 0.779,1.553l0,1.302c0,0.534 -0.175,0.976 -0.526,1.324c-0.351,0.348 -0.838,0.58 -1.461,0.694l0,0.058l2.26,3.478c0.117,0.153 0.052,0.229 -0.195,0.229l-0.877,0c-0.22,0 -0.383,-0.067 -0.487,-0.201l-2.183,-3.463l-2.572,0c-0.13,0 -0.195,0.042 -0.195,0.128l0,3.335c0,0.134 -0.091,0.201 -0.273,0.201Zm0.468,-4.538l2.943,0c1.117,0 1.676,-0.41 1.676,-1.231l0,-1.273c0,-0.831 -0.559,-1.246 -1.676,-1.246l-2.943,0c-0.13,0 -0.195,0.043 -0.195,0.129l0,3.493c0,0.085 0.065,0.128 0.195,0.128Z" style="fill:#fff;fill-rule:nonzero;"/><path d="M150.754,14.202l-0.975,0c-0.168,0 -0.227,-0.067 -0.175,-0.201l3.645,-8.802c0.052,-0.134 0.175,-0.201 0.37,-0.201l1.403,0c0.195,0 0.319,0.067 0.37,0.201l3.645,8.802c0.052,0.134 -0.006,0.201 -0.175,0.201l-0.994,0c-0.143,0 -0.234,-0.067 -0.273,-0.201l-0.916,-2.089l-4.717,0l-0.916,2.089c-0.052,0.134 -0.149,0.201 -0.292,0.201Zm3.528,-8.13l-2.008,4.952l4.093,0l-2.007,-4.952l-0.078,0Z" style="fill:#fff;fill-rule:nonzero;"/><path d="M162.74,13.314l3.196,0c1.118,0 1.677,-0.405 1.677,-1.216l0,-0.931c0,-0.811 -0.598,-1.216 -1.793,-1.216l-3.08,0c-0.13,0 -0.195,0.043 -0.195,0.129l0,3.091c0,0.096 0.065,0.143 0.195,0.143Zm0,-4.236l3.002,0c1.143,0 1.715,-0.406 1.715,-1.217l0,-0.759c0,-0.811 -0.553,-1.216 -1.657,-1.216l-3.06,0c-0.13,0 -0.195,0.047 -0.195,0.143l0,2.92c0,0.086 0.065,0.129 0.195,0.129Zm-1.618,4.923l0,-8.802c0,-0.134 0.091,-0.201 0.273,-0.201l4.58,0c0.897,0 1.599,0.184 2.105,0.551c0.507,0.368 0.76,0.881 0.76,1.539l0,0.787c0,0.849 -0.545,1.398 -1.637,1.646c0.494,0.029 0.916,0.189 1.267,0.48c0.351,0.291 0.526,0.675 0.526,1.152l0,0.959c0,0.658 -0.256,1.171 -0.769,1.539c-0.514,0.367 -1.219,0.551 -2.115,0.551l-4.717,0c-0.182,0 -0.273,-0.067 -0.273,-0.201Z" style="fill:#fff;fill-rule:nonzero;"/><path d="M174.668,13.286l1.988,0c1.091,0 1.637,-0.415 1.637,-1.246l0,-4.88c0,-0.831 -0.546,-1.246 -1.637,-1.246l-1.988,0c-1.079,0 -1.618,0.415 -1.618,1.246l0,4.88c0,0.831 0.539,1.246 1.618,1.246Zm2.163,0.916l-2.319,0c-0.897,0 -1.601,-0.186 -2.115,-0.558c-0.513,-0.373 -0.77,-0.893 -0.77,-1.561l0,-4.966c0,-0.668 0.257,-1.188 0.77,-1.561c0.514,-0.372 1.218,-0.558 2.115,-0.558l2.319,0c0.897,0 1.602,0.189 2.115,0.566c0.513,0.376 0.77,0.894 0.77,1.553l0,4.966c0,0.659 -0.257,1.177 -0.77,1.553c-0.513,0.377 -1.218,0.566 -2.115,0.566Z" style="fill:#fff;fill-rule:nonzero;"/><path d="M189.129,14.202l-6.256,0c-0.182,0 -0.273,-0.067 -0.273,-0.201l0,-8.802c0,-0.134 0.091,-0.201 0.273,-0.201l0.877,0c0.182,0 0.273,0.067 0.273,0.201l0,7.929c0,0.086 0.065,0.129 0.195,0.129l4.911,0c0.182,0 0.273,0.072 0.273,0.215l0,0.529c0,0.134 -0.091,0.201 -0.273,0.201Z" style="fill:#fff;fill-rule:nonzero;"/><path d="M192.91,5.199l0,8.802c0,0.134 -0.091,0.201 -0.273,0.201l-0.877,0c-0.181,0 -0.272,-0.067 -0.272,-0.201l0,-8.802c0,-0.134 0.091,-0.201 0.272,-0.201l0.877,0c0.182,0 0.273,0.067 0.273,0.201Z" style="fill:#fff;fill-rule:nonzero;"/><path d="M201.116,14.202l-2.339,0c-0.897,0 -1.602,-0.186 -2.115,-0.558c-0.513,-0.373 -0.77,-0.893 -0.77,-1.561l0,-4.966c0,-0.668 0.257,-1.188 0.77,-1.561c0.513,-0.372 1.218,-0.558 2.115,-0.558l2.339,0c0.896,0 1.601,0.186 2.114,0.558c0.513,0.373 0.77,0.893 0.77,1.561l0,0.701c0,0.134 -0.091,0.2 -0.273,0.2l-0.877,0c-0.182,0 -0.273,-0.066 -0.273,-0.2l0,-0.658c0,-0.831 -0.545,-1.246 -1.637,-1.246l-2.007,0c-1.079,0 -1.618,0.415 -1.618,1.246l0,4.88c0,0.831 0.539,1.246 1.618,1.246l2.007,0c1.092,0 1.637,-0.415 1.637,-1.246l0,-0.658c0,-0.134 0.091,-0.2 0.273,-0.2l0.877,0c0.182,0 0.273,0.066 0.273,0.2l0,0.701c0,0.668 -0.257,1.188 -0.77,1.561c-0.513,0.372 -1.218,0.558 -2.114,0.558Z" style="fill:#fff;fill-rule:nonzero;"/></g></svg>